# xmcd
#
# Track frame offsets: 
#        150
#        17061
#        28922
#        53476
#        71405
#        86911
#        107463
#        125091
#        146299
#        165822
#        184052
#        205995
#        227434
#        263691
#
# Disc length: 3939 seconds
#
# Revision: 0
# Processed by: cddbd v1.5.1PL0 Copyright (c) Steve Scherf et al.
# Submitted via: ExactAudioCopy v0.90b4
#
DISCID=b10f610e
DTITLE=J.J. Cale - Gothic Theater July 7 2004
DYEAR=2004
DGENRE=Folk/Rock
TTITLE0=Jj Cale - Drifter's Life
TTITLE1=Jj Cale - Reality
TTITLE2=Jj Cale - Mama Don't
TTITLE3=Jj Cale - Low Down
TTITLE4=Jj Cale - Don't Cry Sister
TTITLE5=Jj Cale - Takin' Care Of Business
TTITLE6=Jj Cale - Sensitive Kind
TTITLE7=Jj Cale - Doctor Told Me
TTITLE8=Jj Cale - Thirteen Days
TTITLE9=Jj Cale - Guitar Man
TTITLE10=Jj Cale - I Feel Like The Blues (Christine Lakeland)
TTITLE11=Jj Cale - Pursuit Of Happiness
TTITLE12=Jj Cale - Any Way The Wind Blows
TTITLE13=Jj Cale - Ride Me High
EXTD=
EXTT0=
EXTT1=
EXTT2=
EXTT3=
EXTT4=
EXTT5=
EXTT6=
EXTT7=
EXTT8=
EXTT9=
EXTT10=
EXTT11=
EXTT12=
EXTT13=
PLAYORDER=
